D:\PredSim\limbproperties\Ratio80_downhill20\Ratio80_downhill20_IK_walking_1.5.mot
version=1
nRows=4
nColumns=124
inDegrees=yes
endheader
                time	         pelvis_tilt	         pelvis_list	     pelvis_rotation	           pelvis_tx	           pelvis_ty	           pelvis_tz	       hip_flexion_r	     hip_adduction_r	      hip_rotation_r	        knee_angle_r	       ankle_angle_r	    subtalar_angle_r	         mtp_angle_r	       hip_flexion_l	     hip_adduction_l	      hip_rotation_l	        knee_angle_l	       ankle_angle_l	    subtalar_angle_l	         mtp_angle_l	    lumbar_extension	      lumbar_bending	     lumbar_rotation	          arm_flex_r	           arm_add_r	           arm_rot_r	        elbow_flex_r	          arm_flex_l	           arm_add_l	           arm_rot_l	        elbow_flex_l	glut_med1_r/activation	glut_med2_r/activation	glut_med3_r/activation	glut_min1_r/activation	glut_min2_r/activation	glut_min3_r/activation	semimem_r/activation	semiten_r/activation	bifemlh_r/activation	bifemsh_r/activation	    sar_r/activation	add_long_r/activation	add_brev_r/activation	add_mag1_r/activation	add_mag2_r/activation	add_mag3_r/activation	    tfl_r/activation	   pect_r/activation	   grac_r/activation	glut_max1_r/activation	glut_max2_r/activation	glut_max3_r/activation	iliacus_r/activation	  psoas_r/activation	quad_fem_r/activation	    gem_r/activation	   peri_r/activation	rect_fem_r/activation	vas_med_r/activation	vas_int_r/activation	vas_lat_r/activation	med_gas_r/activation	lat_gas_r/activation	 soleus_r/activation	tib_post_r/activation	flex_dig_r/activation	flex_hal_r/activation	tib_ant_r/activation	per_brev_r/activation	per_long_r/activation	per_tert_r/activation	ext_dig_r/activation	ext_hal_r/activation	glut_med1_l/activation	glut_med2_l/activation	glut_med3_l/activation	glut_min1_l/activation	glut_min2_l/activation	glut_min3_l/activation	semimem_l/activation	semiten_l/activation	bifemlh_l/activation	bifemsh_l/activation	    sar_l/activation	add_long_l/activation	add_brev_l/activation	add_mag1_l/activation	add_mag2_l/activation	add_mag3_l/activation	    tfl_l/activation	   pect_l/activation	   grac_l/activation	glut_max1_l/activation	glut_max2_l/activation	glut_max3_l/activation	iliacus_l/activation	  psoas_l/activation	quad_fem_l/activation	    gem_l/activation	   peri_l/activation	rect_fem_l/activation	vas_med_l/activation	vas_int_l/activation	vas_lat_l/activation	med_gas_l/activation	lat_gas_l/activation	 soleus_l/activation	tib_post_l/activation	flex_dig_l/activation	flex_hal_l/activation	tib_ant_l/activation	per_brev_l/activation	per_long_l/activation	per_tert_l/activation	ext_dig_l/activation	ext_hal_l/activation	 ercspn_r/activation	 ercspn_l/activation	 intobl_r/activation	 intobl_l/activation	 extobl_r/activation	 extobl_l/activation	
          1.50041904	          3.73929508	         -6.55038314	         -3.17138027	          2.23236112	          0.87673320	          0.00634092	         -0.18372823	         10.92073601	          4.36598353	        -44.22312090	         15.88674195	          0.71018093	         20.06996006	         29.45764176	         -6.03676799	         -4.69679938	         -9.01527688	         11.79559107	          1.35028900	          0.23658423	          3.00702721	          7.97973390	          1.89042879	          0.76333692	        -13.97742002	         13.78984143	         26.41649482	         -8.79551587	        -13.50379160	         14.97214823	         26.92104328	          0.33681034	          0.05000010	          0.05000001	          0.23366294	          0.09264687	          0.05000012	          0.07131604	          0.05000004	          0.05000018	          0.05000001	          0.05000008	          0.25410546	          0.14776553	          0.05000099	          0.05000353	          0.10404795	          0.06918681	          0.05000023	          0.05000009	          0.05000028	          0.05000021	          0.05000057	          0.05000009	          0.40021385	          0.05000004	          0.05000007	          0.05000004	          0.42250136	          0.17728235	          0.19629551	          0.18128390	          0.10587579	          0.11156706	          0.33881128	          0.16121357	          0.10611759	          0.11895481	          0.05000006	          0.05000017	          0.07920988	          0.05000009	          0.12341207	          0.05000011	          0.05245693	          0.05000384	          0.13958938	          0.06806087	          0.06806065	          0.05833996	          0.17166403	          0.11644560	          0.16018120	          0.09264689	          0.09264587	          0.06858347	          0.05000491	          0.05000011	          0.05000006	          0.10688365	          0.06806117	          0.05833574	          0.10762037	          0.05000009	          0.06338538	          0.14119268	          0.07940766	          0.07940769	          0.05612229	          0.06801329	          0.09963439	          0.05000002	          0.05000002	          0.05000001	          0.05000001	          0.07940764	          0.07940767	          0.06806089	          0.07940763	          0.06806460	          0.07940759	          0.36411939	          0.05584375	          0.16808132	          0.15612286	          0.50761039	          0.27285670	          0.05000000	          0.05133988	          0.05000000	          0.10695544	          0.05000000	          0.09121439	
          1.51042184	          3.75184945	         -6.63229317	         -3.35514726	          2.25076799	          0.87466180	          0.00619599	         -0.74615465	         10.67809716	          4.04220177	        -45.45380338	         14.88369797	          1.54456349	         21.16022778	         29.49468113	         -6.14853883	         -4.52166531	         -9.65162005	         10.32955386	          1.34475308	          0.27962779	          3.17732327	          7.84030086	          1.94786390	          0.38617072	        -14.05155887	         13.90761938	         26.69916280	         -9.35124085	        -13.54431899	         14.75778849	         26.70577846	          0.28868306	          0.05000036	          0.06806021	          0.20027454	          0.07940845	          0.05833572	          0.08546332	          0.05000004	          0.05000029	          0.05000003	          0.05000031	          0.23713265	          0.37898909	          0.05001680	          0.05000700	          0.11225774	          0.05930065	          0.06805861	          0.05000034	          0.05000017	          0.05000014	          0.05456454	          0.05000005	          0.44619934	          0.05000008	          0.11377696	          0.07727755	          0.47406941	          0.15195024	          0.16824658	          0.15538001	          0.09074706	          0.09562509	          0.29039808	          0.13817755	          0.09095433	          0.10195721	          0.15723650	          0.08214816	          0.08514343	          0.05000009	          0.19733547	          0.05000013	          0.06797522	          0.08920154	          0.17134880	          0.05833565	          0.05833559	          0.05000374	          0.14713473	          0.09980656	          0.14457914	          0.07940846	          0.07940761	          0.06806090	          0.05000002	          0.05000008	          0.14326986	          0.16630937	          0.05833586	          0.05000039	          0.09224242	          0.07560306	          0.12626927	          0.23032213	          0.06806100	          0.06806102	          0.05605446	          0.05829483	          0.08539759	          0.05000001	          0.05000002	          0.05000002	          0.05000002	          0.06806098	          0.06806101	          0.05833565	          0.06806098	          0.05833880	          0.06806097	          0.34929358	          0.05000008	          0.18121557	          0.13381427	          0.68599140	          0.35310227	          0.05000000	          0.05000000	          0.05000006	          0.09167244	          0.05000001	          0.07818065	
          1.52042463	          3.76839979	         -6.66044294	         -3.51699776	          2.26922477	          0.87235798	          0.00602496	         -1.13444344	         10.38737432	          3.73542161	        -46.98430388	         13.78706744	          2.39106152	         21.93347329	         29.62379895	         -6.21589784	         -4.32655303	        -11.06283267	          8.03395765	          1.35230190	          0.31483160	          3.34170656	          7.63066216	          1.99626845	          0.01689809	        -14.12117020	         14.04176979	         26.92915723	         -9.86327466	        -13.60063076	         14.58239997	         26.43688689	          0.24743275	          0.05000007	          0.05833503	          0.17165705	          0.06806169	          0.05000019	          0.09811786	          0.05000002	          0.05000012	          0.05000001	          0.05000032	          0.43411353	          0.40805701	          0.05000201	          0.05000077	          0.10809054	          0.05082716	          0.05833401	          0.05000021	          0.06245347	          0.06687953	          0.08919677	          0.05000002	          0.49223899	          0.31725509	          0.09751925	          0.06623528	          0.40632900	          0.13023787	          0.14420560	          0.13317755	          0.07778009	          0.08196110	          0.24890271	          0.11843317	          0.07795778	          0.08738842	          0.26011410	          0.07041598	          0.07541983	          0.06768185	          0.26845312	          0.11504856	          0.18376719	          0.24600811	          0.40303938	          0.05000003	          0.05000002	          0.21399495	          0.12611046	          0.08554507	          0.12392004	          0.06806168	          0.06806096	          0.05833566	          0.05833569	          0.11424630	          0.18903932	          0.21636232	          0.05000022	          0.05833568	          0.07906185	          0.18730650	          0.23290646	          0.33668883	          0.05833568	          0.05833570	          0.16370341	          0.05746717	          0.22802240	          0.05833565	          0.13299012	          0.14601340	          0.12792650	          0.05833565	          0.05833568	          0.05000000	          0.05833565	          0.05000271	          0.05833566	          0.60961977	          0.24798638	          0.18981152	          0.48034663	          0.81161589	          0.61190472	          0.08031198	          0.05833565	          0.05348555	          0.07857324	          0.05000000	          0.06700931	
          1.53042742	          3.78667351	         -6.62988723	         -3.65163013	          2.28747764	          0.87005663	          0.00584539	         -1.32530514	         10.04953526	          3.43580408	        -48.79631804	         12.61709220	          3.24771477	         22.13962482	         29.87865013	         -6.25126032	         -4.11921654	        -13.24192232	          4.91162922	          1.36297721	          0.29552734	          3.48763079	          7.34713098	          2.03454398	         -0.29766495	        -14.16303320	         14.19295252	         27.03934356	        -10.27032640	        -13.66022733	         14.46901003	         26.03391789	          0.21207675	          0.05000016	          0.05000002	          0.14712875	          0.05833630	          0.05000021	          0.10555869	          0.05266889	          0.06823793	          0.05000002	          0.05000003	          0.41577165	          0.54644110	          0.06061212	          0.06749891	          0.09264550	          0.05000013	          0.05000008	          0.05000033	          0.06804129	          0.07944191	          0.09555488	          0.12695322	          0.53103021	          0.27192210	          0.08358464	          0.05677089	          0.51057911	          0.11162800	          0.12359987	          0.11414763	          0.06666599	          0.07024957	          0.21333666	          0.10151010	          0.06681833	          0.07490139	          0.35882256	          0.06696992	          0.06464302	          0.21193327	          0.34406735	          0.17434397	          0.28433546	          0.46145761	          0.61168218	          0.28926512	          0.38021473	          0.33488387	          0.10809036	          0.07332148	          0.10621294	          0.05833626	          0.05833565	          0.05000000	          0.05000003	          0.09792151	          0.22451178	          0.26196106	          0.05000006	          0.05000004	          0.06776462	          0.37491467	          0.35219563	          0.44245937	          0.05000002	          0.05000003	          0.19485062	          0.06110226	          0.19544007	          0.05000000	          0.22288054	          0.26573006	          0.21205609	          0.05000000	          0.05000002	          0.05000000	          0.05000000	          0.05000002	          0.05000002	          0.76579804	          0.34055193	          0.20861712	          0.68824281	          0.88698217	          0.76716884	          0.11420736	          0.05000000	          0.05000000	          0.06734581	          0.05833568	          0.05743426	
